<svg width="512" height="512" viewBox="0 0 512 512" fill="none" xmlns="http://www.w3.org/2000/svg" xmlns:xlink="http://www.w3.org/1999/xlink" class=""><rect id="r4" width="512" height="512" x="0" y="0" rx="" fill="url(#r5)" stroke="#FFFFFF" stroke-width="0" stroke-opacity="100%" paint-order="stroke"></rect><clipPath id="clip"><use xlink:href="#r4"></use></clipPath><defs><linearGradient id="r5" gradientUnits="userSpaceOnUse" gradientTransform="rotate(45)" style="transform-origin: center center;"><stop stop-color="#FF7DB4"></stop><stop offset="1" stop-color="#654EA3"></stop></linearGradient><radialGradient id="r6" cx="0" cy="0" r="1" gradientUnits="userSpaceOnUse" gradientTransform="translate(256) rotate(90) scale(512)"><stop stop-color="white"></stop><stop offset="1" stop-color="white" stop-opacity="0"></stop></radialGradient></defs><svg viewBox="0 0 24 24" width="352" height="352" x="80" y="80" alignment-baseline="middle" style="color: rgb(255, 255, 255);"><g fill="none" fill-rule="evenodd"><path d="M24 0v24H0V0h24ZM12.593 23.258l-.011.002l-.071.035l-.02.004l-.014-.004l-.071-.035c-.01-.004-.019-.001-.024.005l-.004.01l-.017.428l.005.02l.01.013l.104.074l.015.004l.012-.004l.104-.074l.012-.016l.004-.017l-.017-.427c-.002-.01-.009-.017-.017-.018Zm.265-.113l-.013.002l-.185.093l-.01.01l-.003.011l.018.43l.005.012l.008.007l.201.093c.012.004.023 0 .029-.008l.004-.014l-.034-.614c-.003-.012-.01-.02-.02-.022Zm-.715.002a.023.023 0 0 0-.027.006l-.006.014l-.034.614c0 .012.007.02.017.024l.015-.002l.201-.093l.01-.008l.004-.011l.017-.43l-.003-.012l-.01-.01l-.184-.092Z"></path><path fill="currentColor" d="M12 2c5.523 0 10 4.477 10 10s-4.477 10-10 10S2 17.523 2 12S6.477 2 12 2Zm-2 13.464v4.284A8 8 0 0 0 12 20c1.458 0 2.824-.39 4.001-1.071l-6-3.465ZM8 12l-3.71 2.142a8.016 8.016 0 0 0 3.457 4.635L8 18.93V12Zm12 0l-6 3.464l3.708 2.141a7.973 7.973 0 0 0 2.286-5.295L20 12Zm-8.01-2.316l-2 1.168l.01 2.315l2.01 1.149l2-1.168l-.01-2.315l-2.01-1.149ZM6.291 6.395A7.974 7.974 0 0 0 4 12l6-3.464l-3.708-2.141ZM16 5.07V12l3.71-2.142A8.018 8.018 0 0 0 16 5.07ZM12 4c-1.458 0-2.824.39-4.001 1.071L14 8.536V4.252A8.015 8.015 0 0 0 12 4Z"></path></g></svg>
</svg>